<svg width="107" height="41" fill="none" xmlns="http://www.w3.org/2000/svg">
    <path fill-rule="evenodd" clip-rule="evenodd" d="M101.859 7.449h-1.029v3.21h-.97V7.45h-1.028V6.56h3.027v.889zm5.14 3.21h-.964V7.456h-.104l-.885 2.242h-.676l-.895-2.282h-.13v3.245h-.914v-4.1h1.565l.726 2.005.756-2.005h1.521v4.1zM20.295 9C18.912 9 18 9.837 18 11.443v20.085c0 1.305.502 2.443 2.295 2.443s2.296-1.138 2.296-2.443V23.46c0-2.443 1.888-3.85 3.492-3.85 1.981 0 2.893 1.407 2.893 3.381v8.537c0 1.305.504 2.443 2.296 2.443 1.793 0 2.297-1.138 2.297-2.443V22.02c0-4.954-3.02-6.427-5.788-6.427-2.61 0-4.214 1.305-5.127 2.578h-.063v-6.729C22.591 9.837 21.68 9 20.296 9zm-3.84 11.093c0-2.24-2.922-4.513-6.84-4.513-5.748 0-8.799 3.854-8.799 9.387 0 5.04 2.73 8.696 8.51 8.696 4.817 0 7.13-2.899 7.13-5.006 0-.956-.771-1.845-1.96-1.845-1.15 0-1.612.67-2.107 1.385-.57.825-1.182 1.71-2.934 1.71-2.57 0-3.95-1.943-3.95-4.94 0-4.348 2.151-5.632 3.982-5.632 1.862 0 2.451.864 2.978 1.638.428.627.815 1.195 1.807 1.195 1.188 0 2.183-.692 2.183-2.075zm19.483-2.108c0-1.285.515-2.405 2.345-2.405s2.344 1.12 2.344 2.405v13.274c0 1.284-.513 2.404-2.344 2.404-1.83 0-2.345-1.12-2.345-2.404V17.985zm6.535-.132c0-1.482.674-2.273 2.12-2.273 1.38 0 2.12.79 2.12 2.273v.757h.063c.771-2.042 2.666-3.03 4.946-3.03 3.918 0 7.354 2.931 7.354 9.157 0 4.61-2.28 8.926-7.226 8.926-2.151 0-3.757-.89-4.624-2.437h-.065v6.422c0 1.582-.93 2.405-2.344 2.405-1.413 0-2.344-.823-2.344-2.405V17.853zm8.19 1.482c-2.73 0-3.758 2.503-3.758 5.237 0 2.47.899 5.37 3.757 5.336 2.987 0 3.726-3.096 3.726-5.336 0-2.833-1.222-5.17-3.726-5.237zm10.596-7.91c0-1.582.931-2.405 2.344-2.405 1.414 0 2.345.823 2.345 2.404v19.763c0 1.581-.932 2.404-2.345 2.404-1.413 0-2.344-.823-2.344-2.404V11.424zM83.914 28.59c0 1.244.185 1.895.326 2.39.086.304.156.55.156.837 0 1.087-.996 1.845-2.12 1.845-2.022 0-2.697-1.318-2.76-2.8-1.832 2.075-3.95 2.8-6.424 2.8-2.665 0-5.299-1.877-5.299-4.908 0-3.985 2.955-5.105 6.551-5.533l2.859-.33c1.123-.132 2.022-.395 2.022-1.778 0-1.384-1.38-1.976-2.954-1.976-2.001 0-2.88.877-3.623 1.62-.544.543-1.016 1.014-1.804 1.014-1.188 0-1.99-.856-1.99-1.844 0-1.91 2.633-4.348 7.449-4.348 4.496 0 7.611 1.482 7.611 4.94v8.07zm-4.689-3.459c-.502.484-1.435.652-1.987.751l-.035.007-1.703.263c-1.958.297-3.018.923-3.018 2.372 0 1.087.996 1.976 2.6 1.976 2.57 0 4.143-1.712 4.143-3.492v-1.877zM88.923 9.02c-1.412 0-2.343.823-2.343 2.404V31.32c0 1.482.673 2.273 2.119 2.273 1.38 0 2.12-.79 2.12-2.273v-.757h.063c.771 2.042 2.666 3.03 4.946 3.03 3.918 0 7.354-2.932 7.354-9.157 0-4.612-2.28-8.926-7.226-8.926-2.087 0-3.693.889-4.624 2.437h-.064v-6.522c0-1.58-.931-2.404-2.345-2.404zm2.088 15.58c0-2.47.9-5.37 3.757-5.336 2.987 0 3.726 3.096 3.726 5.335 0 2.833-1.222 5.172-3.726 5.238-2.73 0-3.757-2.504-3.757-5.238z" fill="#fff"></path>
    <path d="M3.523 6.365c1.945 0 3.523-1.425 3.523-3.182C7.046 1.425 5.468 0 3.523 0 1.577 0 0 1.425 0 3.183 0 4.94 1.577 6.365 3.523 6.365z" fill="#1B75BC"></path>
    <path d="M19.297 3.182c0 1.758-1.577 3.183-3.523 3.183-1.946 0-3.522-1.425-3.522-3.183C12.252 1.425 13.828 0 15.774 0c1.946 0 3.523 1.425 3.523 3.182z" fill="#F7941D"></path>
    <path d="M27.21 6.365c1.946 0 3.523-1.425 3.523-3.183C30.733 1.425 29.156 0 27.21 0c-1.945 0-3.523 1.425-3.523 3.182 0 1.758 1.578 3.183 3.523 3.183z" fill="#009444"></path>
    <path d="M37.828 6.365c1.946 0 3.523-1.425 3.523-3.183C41.351 1.425 39.774 0 37.828 0c-1.945 0-3.522 1.425-3.522 3.182 0 1.758 1.577 3.183 3.522 3.183z" fill="#BE1E2D"></path>
</svg>