<svg width="136" height="102" viewBox="0 0 136 102" fill="none" xmlns="http://www.w3.org/2000/svg">
<path d="M135 68C135 30.9969 105.003 1 68 1C30.9969 1 1 30.9969 1 68" stroke="#ADADAD"/>
<path fill-rule="evenodd" clip-rule="evenodd" d="M69.174 62.153L69.852 61.403H79.142V61.603H87.333C89.668 61.603 91.561 63.521 91.561 65.889C91.5639 66.7057 91.3335 67.5063 90.897 68.1966C90.4605 68.887 89.8361 69.4384 89.097 69.786H91.595C93.935 69.786 95.831 71.705 95.831 74.072C95.831 76.439 93.937 78.357 91.599 78.359C93.937 78.361 95.831 80.279 95.831 82.646C95.831 85.013 93.934 86.932 91.595 86.932H87.333C89.668 86.932 91.561 88.852 91.561 91.219C91.561 93.586 89.668 95.506 87.333 95.506H51.584V61.992H53.906L71.69 40.169L72.867 41.365C75.315 43.849 75.944 47.635 74.435 50.796L69.175 61.82V62.153H69.174Z" fill="#EEEEEE"/>
<path fill-rule="evenodd" clip-rule="evenodd" d="M91.96 68.776C94.783 69.059 96.996 71.466 96.996 74.384C96.9965 75.1916 96.8236 75.9899 96.4891 76.725C96.1546 77.4601 95.6662 78.1148 95.057 78.645C95.6665 79.1752 96.155 79.8301 96.4895 80.5654C96.824 81.3006 96.9968 82.0992 96.996 82.907C96.996 85.825 94.783 88.232 91.961 88.514C92.473 89.365 92.768 90.363 92.768 91.429C92.768 94.536 90.26 97.065 87.177 97.065H60.896C58.478 97.065 56.111 96.614 53.86 95.724L52.622 95.234V95.69C52.622 96.449 52.012 97.064 51.258 97.064H39.364C39.001 97.0624 38.6535 96.9168 38.3977 96.6592C38.142 96.4016 37.9989 96.053 38 95.69V62.017C38 61.258 38.61 60.643 39.364 60.643H51.258C51.786 60.643 52.243 60.946 52.47 61.389L56.26 56.772C56.3734 56.633 56.5133 56.518 56.6716 56.4334C56.8298 56.3489 57.0032 56.2966 57.1818 56.2796C57.3604 56.2626 57.5406 56.2812 57.7119 56.3343C57.8833 56.3874 58.0424 56.474 58.18 56.589C58.76 57.073 58.842 57.939 58.362 58.524L52.622 65.516V92.281L54.856 93.164C56.7784 93.9264 58.828 94.3173 60.896 94.316H72.203C71.6838 93.4426 71.4105 92.4451 71.412 91.429C71.412 89.729 72.164 88.202 73.35 87.168C72.7408 86.6378 72.2526 85.9831 71.9183 85.248C71.5839 84.5129 71.4113 83.7146 71.412 82.907C71.4111 82.0994 71.5837 81.3011 71.9181 80.5659C72.2524 79.8308 72.7407 79.1761 73.35 78.646C72.7407 78.1157 72.2524 77.4608 71.918 76.7255C71.5837 75.9902 71.4111 75.1917 71.412 74.384C71.412 72.684 72.164 71.157 73.35 70.124C72.7407 69.5937 72.2524 68.9388 71.918 68.2035C71.5837 67.4682 71.4111 66.6697 71.412 65.862C71.412 64.807 71.702 63.82 72.203 62.975H70.321V64.528C70.321 70.158 65.776 74.738 60.191 74.738H58.933C58.57 74.7364 58.2225 74.5908 57.9667 74.3332C57.711 74.0756 57.5679 73.727 57.569 73.364C57.569 72.604 58.179 71.989 58.933 71.989H60.191C64.273 71.989 67.593 68.642 67.593 64.527V62.017C67.593 61.81 67.64 61.605 67.73 61.418L72.953 50.552C73.5316 49.3483 73.7493 48.0029 73.5798 46.6782C73.4103 45.3535 72.8609 44.1062 71.998 43.087L71.508 42.51L65.53 49.791C65.05 50.376 64.19 50.458 63.61 49.974C63.3312 49.7402 63.1558 49.4059 63.1219 49.0437C63.088 48.6814 63.1984 48.3204 63.429 48.039L70.439 39.499C70.5653 39.3452 70.7239 39.221 70.9035 39.1351C71.083 39.0493 71.2793 39.0039 71.4783 39.0022C71.6773 39.0004 71.8743 39.0424 72.0554 39.1252C72.2364 39.2079 72.3971 39.3294 72.526 39.481L74.07 41.3C75.2782 42.7267 76.0475 44.4727 76.285 46.3271C76.5224 48.1815 76.2178 50.0649 75.408 51.75L71.334 60.226H87.176C90.26 60.226 92.768 62.754 92.768 65.862C92.7693 66.8888 92.4899 67.8964 91.96 68.776V68.776ZM40.717 63.551V94.337H50.032V63.55H40.717V63.551ZM74.097 65.694C74.097 64.082 75.382 62.771 76.962 62.771H87.143C88.723 62.771 90.009 64.083 90.009 65.694C90.009 67.306 88.724 68.617 87.143 68.617H76.963C75.382 68.617 74.096 67.306 74.096 65.694H74.097ZM76.962 94.337H87.143C88.723 94.337 90.009 93.026 90.009 91.414C90.009 89.803 88.724 88.491 87.143 88.491H76.963C75.382 88.491 74.096 89.802 74.096 91.414C74.096 93.026 75.382 94.337 76.962 94.337ZM94.28 82.84C94.28 84.451 92.992 85.762 91.408 85.762H76.968C75.384 85.762 74.096 84.452 74.096 82.84C74.096 81.228 75.384 79.917 76.968 79.917H91.408C92.99 79.917 94.278 81.227 94.278 82.84H94.28ZM74.097 74.266C74.097 75.878 75.385 77.189 76.969 77.189H91.409C92.992 77.189 94.279 75.878 94.279 74.266C94.279 72.655 92.992 71.344 91.409 71.344H76.969C75.385 71.344 74.097 72.654 74.097 74.266ZM44.21 72.35C44.21 71.58 44.818 70.956 45.568 70.956C46.318 70.956 46.927 71.58 46.927 72.35V84.76C46.927 85.53 46.319 86.154 45.569 86.154C44.819 86.154 44.21 85.53 44.21 84.76V72.35ZM44.21 89.456C44.21 88.708 44.818 88.103 45.568 88.103C46.318 88.103 46.927 88.708 46.927 89.456V89.477C46.927 90.225 46.319 90.83 45.569 90.83C44.819 90.83 44.21 90.225 44.21 89.477V89.456ZM61.666 54.969C61.411 55.2233 61.0661 55.367 60.706 55.369C60.3451 55.3672 59.9996 55.2226 59.745 54.9668C59.4903 54.711 59.3473 54.3649 59.347 54.004C59.3465 53.8252 59.3812 53.6481 59.4492 53.4828C59.5172 53.3174 59.6171 53.1671 59.7432 53.0405C59.8693 52.9138 60.0192 52.8132 60.1842 52.7445C60.3493 52.6758 60.5262 52.6403 60.705 52.64C60.8839 52.6401 61.0609 52.6755 61.2261 52.7442C61.3912 52.8128 61.5412 52.9134 61.6674 53.0401C61.7937 53.1668 61.8937 53.3172 61.9617 53.4826C62.0298 53.648 62.0645 53.8251 62.064 54.004C62.064 54.363 61.919 54.714 61.666 54.969Z" fill="#222222"/>
<path d="M91.522 39.685C89.996 39.685 88.62 40.364 87.648 41.451C86.676 40.364 85.3 39.685 83.774 39.685C80.829 39.685 78.441 42.213 78.441 45.332C78.441 49.702 87.648 56.46 87.648 56.46C87.648 56.46 96.855 49.702 96.855 45.332C96.855 42.213 94.467 39.685 91.522 39.685V39.685Z" fill="#FF5D5D"/>
<path fill-rule="evenodd" clip-rule="evenodd" d="M87.648 57.145C87.4958 57.1449 87.3476 57.0962 87.225 57.006C86.0877 56.1546 84.988 55.254 83.929 54.307C83.7833 54.1755 83.6945 53.9925 83.6814 53.7967C83.6683 53.6009 83.732 53.4077 83.859 53.258C83.9208 53.1846 83.9967 53.1243 84.0822 53.0808C84.1677 53.0373 84.261 53.0114 84.3568 53.0047C84.4525 52.998 84.5485 53.0106 84.6393 53.0417C84.73 53.0729 84.8136 53.1219 84.885 53.186C85.7797 53.9826 86.7023 54.7475 87.651 55.479C90.352 53.422 96.083 48.422 96.083 45.352C96.083 42.669 94.028 40.487 91.503 40.487C90.237 40.487 89.058 41.025 88.185 42C88.1175 42.0755 88.0348 42.1358 87.9423 42.1771C87.8499 42.2185 87.7498 42.2398 87.6485 42.2398C87.5472 42.2398 87.4471 42.2185 87.3547 42.1771C87.2622 42.1358 87.1795 42.0755 87.112 42C86.239 41.025 85.06 40.487 83.793 40.487C81.268 40.487 79.214 42.669 79.214 45.352C79.214 46.306 79.814 47.594 80.948 49.077C81.0671 49.233 81.1207 49.4292 81.0976 49.6241C81.0744 49.819 80.9763 49.9972 80.824 50.121C80.7493 50.181 80.6632 50.2254 80.571 50.2516C80.4788 50.2778 80.3823 50.2852 80.2871 50.2733C80.192 50.2615 80.1002 50.2306 80.0172 50.1827C79.9342 50.1347 79.8617 50.0705 79.804 49.994C78.428 48.197 77.76 46.679 77.76 45.352C77.76 41.849 80.467 39 83.793 39C85.2128 39.0072 86.5821 39.5279 87.648 40.466C88.7138 39.5279 90.0831 39.0072 91.503 39C94.83 39 97.537 41.85 97.537 45.352C97.537 47.363 95.92 49.951 92.729 53.043C91.2598 54.4587 89.7045 55.7822 88.072 57.006C87.9492 57.0966 87.8006 57.1457 87.648 57.146V57.145ZM82.197 52.695C82.0185 52.695 81.8473 52.6241 81.721 52.498L81.711 52.489C81.5832 52.3619 81.5109 52.1893 81.51 52.009C81.509 51.8288 81.5795 51.6555 81.706 51.527C81.7685 51.4635 81.8429 51.4129 81.9251 51.3782C82.0072 51.3436 82.0953 51.3255 82.1845 51.325C82.2736 51.3245 82.3619 51.3417 82.4444 51.3755C82.5269 51.4093 82.6018 51.4591 82.665 51.522L82.188 52.005L82.668 51.525L82.673 51.53C82.7683 51.625 82.8333 51.746 82.86 51.8778C82.8867 52.0097 82.8737 52.1465 82.8229 52.271C82.772 52.3955 82.6854 52.5022 82.5741 52.5776C82.4627 52.6531 82.3315 52.6939 82.197 52.695V52.695ZM93.119 45.82C93.119 46.213 93.497 46.532 93.964 46.532C94.431 46.532 94.809 46.213 94.809 45.82C94.809 43.947 93.047 42.424 90.88 42.424C90.414 42.424 90.035 42.742 90.035 43.136C90.035 43.529 90.414 43.848 90.88 43.848C92.115 43.848 93.119 44.732 93.119 45.82V45.82Z" fill="#222222"/>
</svg>
