<svg width="136" height="98" viewBox="0 0 136 98" fill="none" xmlns="http://www.w3.org/2000/svg">
<path d="M135 68C135 30.9969 105.003 1 68 1C30.9969 1 1 30.9969 1 68" stroke="#ADADAD"/>
<g clip-path="url(#clip0_1_16)">
<path fill-rule="evenodd" clip-rule="evenodd" d="M58.833 68.714L60.08 70.359V90.672L65.377 86.573V87.085L68.357 84.78L75.971 90.672V82.987L81.269 87.085V67.855L82.664 67.785C83.0815 67.7638 83.4792 67.6008 83.7916 67.323C84.104 67.0452 84.3122 66.6692 84.382 66.257L85.076 62.171C85.166 61.639 85.486 61.173 85.948 60.898L89.48 58.794C89.8377 58.5805 90.1124 58.2521 90.2595 57.8624C90.4066 57.4726 90.4174 57.0446 90.29 56.648L89.023 52.692C88.9419 52.4391 88.9163 52.1716 88.9481 51.9079C88.9798 51.6442 89.0681 51.3904 89.207 51.164L91.374 47.631C91.5916 47.2762 91.6828 46.8583 91.6329 46.4451C91.583 46.0319 91.3948 45.6477 91.099 45.355L88.162 42.452C87.9728 42.265 87.8264 42.0393 87.7327 41.7904C87.6389 41.5415 87.6002 41.2753 87.619 41.01L87.913 36.867C87.9431 36.4508 87.8308 36.0368 87.5945 35.6928C87.3583 35.3488 87.0122 35.0954 86.613 34.974L82.694 33.789C82.4383 33.7115 82.2026 33.5793 82.0033 33.4014C81.804 33.2235 81.6459 33.0043 81.54 32.759L79.902 28.969C79.7364 28.5841 79.4439 28.2674 79.0733 28.0718C78.7027 27.8763 78.2763 27.8135 77.865 27.894L73.865 28.682C73.6019 28.7337 73.3306 28.727 73.0704 28.6624C72.8102 28.5978 72.5673 28.4768 72.359 28.308L69.179 25.732C68.8529 25.4676 68.4458 25.3234 68.026 25.3234C67.6062 25.3234 67.1991 25.4676 66.873 25.732L63.692 28.308C63.4835 28.4769 63.2405 28.5979 62.9801 28.6625C62.7197 28.7272 62.4482 28.7338 62.185 28.682L58.186 27.894C57.7748 27.8138 57.3485 27.8768 56.9781 28.0726C56.6076 28.2684 56.3154 28.5851 56.15 28.97L54.511 32.76C54.4051 33.0053 54.247 33.2245 54.0477 33.4024C53.8484 33.5803 53.6127 33.7126 53.357 33.79L49.44 34.975C49.0406 35.0962 48.6942 35.3496 48.4578 35.6936C48.2214 36.0375 48.109 36.4517 48.139 36.868L48.433 41.011C48.4518 41.2763 48.4131 41.5425 48.3193 41.7914C48.2256 42.0403 48.0791 42.266 47.89 42.453L44.953 45.356C44.6572 45.6487 44.469 46.0329 44.4191 46.4461C44.3692 46.8593 44.4604 47.2772 44.678 47.632L46.845 51.165C47.126 51.623 47.194 52.182 47.029 52.693L45.761 56.649C45.6336 57.0456 45.6444 57.4736 45.7915 57.8634C45.9386 58.2531 46.2133 58.5815 46.571 58.795L50.104 60.899C50.567 61.174 50.886 61.64 50.976 62.172L51.67 66.258C51.7401 66.6703 51.9486 67.0464 52.2611 67.3243C52.5735 67.6022 52.9714 67.7654 53.389 67.787L57.464 67.99C57.7314 68.0035 57.9927 68.0754 58.2293 68.2007C58.466 68.3259 58.6724 68.5015 58.834 68.715L58.833 68.714ZM83.393 49.043C83.393 57.555 76.513 64.456 68.026 64.456C59.539 64.456 52.659 57.556 52.659 49.043C52.659 40.53 59.54 33.63 68.026 33.63C76.513 33.63 83.393 40.53 83.393 49.043Z" fill="#EEEEEE"/>
<path d="M68.024 41.259L70.547 46.382L76.185 47.202L72.106 51.192L73.071 56.822L68.028 54.165L62.986 56.825L63.948 51.194L59.868 47.207L65.505 46.383L68.025 41.259H68.024Z" fill="#F7941D"/>
<path fill-rule="evenodd" clip-rule="evenodd" d="M92.029 44.409C92.5404 44.9117 92.8658 45.5732 92.9518 46.2851C93.0377 46.9971 92.8791 47.7171 92.502 48.327L90.334 51.861C90.2956 51.9241 90.2712 51.9947 90.2626 52.068C90.2539 52.1414 90.2613 52.2157 90.284 52.286L91.551 56.241C91.7734 56.9239 91.7564 57.6622 91.5028 58.3341C91.2492 59.006 90.7741 59.5714 90.156 59.937L86.624 62.04C86.5602 62.0778 86.5054 62.129 86.4634 62.1902C86.4215 62.2513 86.3933 62.3209 86.381 62.394L85.687 66.48C85.5706 67.1915 85.2132 67.8414 84.6746 68.3207C84.1361 68.8001 83.4492 69.0798 82.729 69.113L82.593 69.119V87.086C82.5927 87.4374 82.4533 87.7745 82.2052 88.0233C81.957 88.2722 81.6204 88.4127 81.269 88.414C80.981 88.414 80.696 88.32 80.459 88.137L77.296 85.689V90.672C77.2957 91.0238 77.156 91.3611 76.9075 91.61C76.6589 91.859 76.3218 91.9992 75.97 92C75.6771 92 75.3925 91.9025 75.161 91.723L68.025 86.201L60.888 91.723C60.488 92.033 59.948 92.087 59.495 91.863C59.2727 91.7532 59.0855 91.5834 58.9547 91.3727C58.824 91.162 58.7548 90.919 58.755 90.671V70.806L57.778 69.517C57.733 69.4574 57.6755 69.4084 57.6094 69.3735C57.5434 69.3386 57.4706 69.3187 57.396 69.315L53.321 69.112C52.6009 69.079 51.914 68.7995 51.3754 68.3203C50.8369 67.8412 50.4794 67.1914 50.363 66.48L49.669 62.394C49.6567 62.3207 49.6286 62.251 49.5867 62.1897C49.5447 62.1284 49.4899 62.077 49.426 62.039L45.894 59.936C45.2761 59.5704 44.8012 59.0052 44.5476 58.3335C44.294 57.6618 44.2769 56.9237 44.499 56.241L45.767 52.286C45.7895 52.2154 45.7966 52.1408 45.7876 52.0673C45.7786 51.9938 45.7539 51.9231 45.715 51.86L43.55 48.327C43.1724 47.717 43.0136 46.9968 43.0996 46.2846C43.1855 45.5724 43.5112 44.9106 44.023 44.408L46.961 41.506C47.0136 41.454 47.0543 41.3912 47.0804 41.322C47.1064 41.2528 47.1172 41.1788 47.112 41.105L46.818 36.962C46.763 36.2445 46.9552 35.5298 47.3628 34.9367C47.7703 34.3437 48.3685 33.9079 49.058 33.702L52.975 32.518C53.0462 32.4965 53.1118 32.4596 53.1673 32.41C53.2227 32.3605 53.2667 32.2994 53.296 32.231L54.935 28.441C55.223 27.7806 55.7271 27.2377 56.3643 26.9015C57.0016 26.5653 57.7343 26.4558 58.442 26.591L62.442 27.379C62.5153 27.3932 62.5908 27.3912 62.6632 27.373C62.7356 27.3549 62.8031 27.3211 62.861 27.274L66.04 24.7C66.6028 24.2478 67.3031 24.0013 68.025 24.0013C68.7469 24.0013 69.4472 24.2478 70.01 24.7L73.191 27.275C73.249 27.3222 73.3167 27.3561 73.3893 27.3743C73.4619 27.3924 73.5376 27.3944 73.611 27.38L77.609 26.592C78.3169 26.4566 79.0498 26.566 79.6872 26.9022C80.3247 27.2383 80.8289 27.7814 81.117 28.442L82.755 32.232C82.815 32.371 82.932 32.475 83.076 32.519L86.994 33.703C87.6835 33.9089 88.2817 34.3447 88.6892 34.9377C89.0967 35.5308 89.289 36.2455 89.234 36.963L88.94 41.106C88.93 41.256 88.984 41.402 89.091 41.507L92.029 44.41V44.409ZM69.349 81.639V83.871L74.647 87.969V73.723C74.2253 73.9276 73.7634 74.0359 73.2947 74.0401C72.826 74.0442 72.3623 73.9441 71.937 73.747L68.242 72.017C68.1743 71.9852 68.1003 71.9687 68.0255 71.9687C67.9507 71.9687 67.8767 71.9852 67.809 72.017L64.114 73.747C63.6989 73.9411 63.2462 74.0415 62.788 74.041C62.309 74.041 61.835 73.933 61.404 73.725V87.97L66.701 83.872V81.64C66.701 80.907 67.294 80.312 68.025 80.312C68.757 80.312 69.35 80.907 69.35 81.64L69.349 81.639ZM79.944 84.383L77.295 82.333V70.807L78.272 69.519C78.3169 69.4595 78.3743 69.4106 78.4401 69.3757C78.5059 69.3408 78.5786 69.3208 78.653 69.317L79.944 69.252V84.384V84.383ZM88.079 50.468L90.247 46.935C90.3079 46.8362 90.3335 46.7197 90.3195 46.6045C90.3055 46.4893 90.2528 46.3823 90.17 46.301L87.232 43.399C86.9062 43.0772 86.654 42.6885 86.4928 42.2599C86.3315 41.8313 86.2651 41.3728 86.298 40.916L86.592 36.773C86.6008 36.657 86.5697 36.5416 86.5038 36.4457C86.438 36.3499 86.3414 36.2794 86.23 36.246L82.312 35.061C81.8715 34.928 81.4654 34.7003 81.1222 34.3939C80.7789 34.0875 80.5069 33.7097 80.325 33.287L78.687 29.497C78.6403 29.3903 78.5588 29.3026 78.4558 29.2483C78.3528 29.194 78.2344 29.1762 78.12 29.198L74.12 29.985C73.6672 30.0743 73.2002 30.0629 72.7523 29.9516C72.3044 29.8403 71.8864 29.6319 71.528 29.341L68.347 26.765C68.256 26.6918 68.1428 26.6519 68.026 26.6519C67.9092 26.6519 67.796 26.6918 67.705 26.765L64.524 29.341C64.1655 29.6323 63.7471 29.841 63.2988 29.9523C62.8505 30.0636 62.3831 30.0747 61.93 29.985L57.931 29.198C57.8165 29.1765 57.6981 29.1945 57.5951 29.2489C57.4921 29.3034 57.4106 29.3912 57.364 29.498L55.726 33.288C55.544 33.7105 55.2719 34.0881 54.9287 34.3943C54.5854 34.7006 54.1794 34.9281 53.739 35.061L49.821 36.246C49.7096 36.2794 49.613 36.3499 49.5472 36.4457C49.4813 36.5416 49.4502 36.657 49.459 36.773L49.753 40.916C49.7859 41.3728 49.7195 41.8313 49.5582 42.2599C49.397 42.6885 49.1448 43.0772 48.819 43.399L45.88 46.3C45.7974 46.3814 45.7449 46.4885 45.7311 46.6037C45.7172 46.7189 45.743 46.8353 45.804 46.934L47.971 50.467C48.456 51.257 48.571 52.215 48.289 53.098L47.02 57.053C46.9839 57.1635 46.9866 57.283 47.0277 57.3918C47.0688 57.5006 47.1458 57.592 47.246 57.651L50.778 59.754C51.1724 59.9888 51.511 60.3065 51.7704 60.6852C52.0297 61.0639 52.2036 61.4944 52.28 61.947L52.974 66.032C53.014 66.271 53.212 66.446 53.453 66.458L57.528 66.661C57.9888 66.6835 58.4389 66.807 58.8467 67.0226C59.2545 67.2383 59.61 67.5409 59.888 67.909L60.831 69.155C61.061 69.314 61.236 69.543 61.329 69.812L62.369 71.185C62.514 71.375 62.776 71.44 62.992 71.339L66.688 69.609V69.608C67.1063 69.4115 67.5628 69.3097 68.025 69.3097C68.4872 69.3097 68.9437 69.4115 69.362 69.608L73.057 71.338C73.1628 71.3872 73.2823 71.3987 73.3956 71.3707C73.5089 71.3427 73.6093 71.2768 73.68 71.184L76.162 67.909C76.4399 67.541 76.7952 67.2385 77.2028 67.0228C77.6104 66.8072 78.0604 66.6837 78.521 66.661L82.597 66.458C82.7134 66.4524 82.8244 66.4071 82.9114 66.3296C82.9984 66.252 83.0561 66.147 83.075 66.032L83.77 61.947C83.8462 61.4945 84.0199 61.064 84.2791 60.6853C84.5383 60.3066 84.8767 59.9888 85.271 59.754L88.803 57.651C88.9032 57.592 88.9802 57.5006 89.0213 57.3918C89.0624 57.283 89.0651 57.1635 89.029 57.053L87.762 53.1C87.6223 52.6647 87.5783 52.2043 87.633 51.7503C87.6877 51.2964 87.8399 50.8597 88.079 50.47V50.468ZM68.025 32.3C65.16 32.3 62.333 33.041 59.85 34.443C59.5435 34.6163 59.3183 34.904 59.2236 35.2431C59.1289 35.5822 59.1726 35.945 59.345 36.252C59.705 36.891 60.512 37.118 61.149 36.758C63.2482 35.5768 65.6163 34.9565 68.025 34.957C75.769 34.957 82.069 41.276 82.069 49.042C82.069 56.809 75.769 63.128 68.025 63.128C60.282 63.128 53.982 56.809 53.982 49.042C53.982 47.008 54.405 45.046 55.239 43.21C55.3848 42.8894 55.3975 42.5241 55.2744 42.1942C55.1512 41.8642 54.9022 41.5966 54.582 41.45C54.4236 41.3778 54.2525 41.3376 54.0786 41.3317C53.9046 41.3258 53.7312 41.3543 53.5682 41.4155C53.4053 41.4767 53.256 41.5695 53.129 41.6885C53.002 41.8075 52.8997 41.9504 52.828 42.109C51.8379 44.2859 51.3283 46.6505 51.334 49.042C51.334 58.274 58.822 65.784 68.026 65.784C77.23 65.784 84.717 58.274 84.717 49.042C84.717 39.811 77.229 32.3 68.025 32.3V32.3ZM61.68 56.602L62.524 51.658L58.942 48.158C58.7651 47.9849 58.64 47.7658 58.5808 47.5255C58.5216 47.2852 58.5307 47.0331 58.607 46.7976C58.6832 46.5621 58.8237 46.3526 59.0126 46.1926C59.2014 46.0326 59.4312 45.9285 59.676 45.892L64.624 45.17L66.836 40.672C66.945 40.45 67.1141 40.2631 67.324 40.1323C67.5339 40.0016 67.7762 39.9322 68.0235 39.9322C68.2708 39.9322 68.5131 40.0016 68.723 40.1323C68.9329 40.2631 69.102 40.45 69.211 40.672L71.425 45.168L76.374 45.888C76.6185 45.9249 76.8479 46.0291 77.0364 46.189C77.225 46.3489 77.3653 46.5581 77.4416 46.7933C77.5179 47.0285 77.5272 47.2802 77.4685 47.5204C77.4097 47.7606 77.2853 47.9796 77.109 48.153L73.529 51.655L74.375 56.598C74.4171 56.8422 74.3902 57.0933 74.2973 57.323C74.2043 57.5527 74.0491 57.7518 73.849 57.898C73.6492 58.0437 73.4125 58.1303 73.1658 58.1479C72.9192 58.1656 72.6725 58.1137 72.454 57.998L68.028 55.666L63.602 58.001C63.3835 58.1168 63.1368 58.1688 62.8902 58.1511C62.6435 58.1334 62.4068 58.0468 62.207 57.901C62.0067 57.7549 61.8513 57.5558 61.7582 57.3261C61.6651 57.0964 61.638 56.8453 61.68 56.601V56.602ZM66.692 46.971C66.5973 47.164 66.457 47.331 66.2833 47.4576C66.1096 47.5843 65.9077 47.6668 65.695 47.698L62.713 48.133L64.871 50.243C65.183 50.547 65.326 50.987 65.252 51.418L64.744 54.397L67.411 52.99C67.6009 52.89 67.8123 52.8377 68.027 52.8377C68.2417 52.8377 68.4531 52.89 68.643 52.99L71.311 54.395L70.801 51.416C70.7646 51.204 70.7802 50.9864 70.8464 50.7817C70.9125 50.5771 71.0274 50.3915 71.181 50.241L73.339 48.131L70.356 47.697C70.1433 47.6658 69.9414 47.5833 69.7677 47.4566C69.594 47.33 69.4537 47.163 69.359 46.97L68.025 44.26L66.692 46.971V46.971ZM57.722 39.473C57.6035 39.6007 57.4608 39.7037 57.3022 39.7759C57.1437 39.8482 56.9724 39.8883 56.7982 39.894C56.6241 39.8996 56.4505 39.8707 56.2876 39.809C56.1247 39.7472 55.9756 39.6537 55.849 39.534C55.5927 39.2928 55.4425 38.9598 55.431 38.6081C55.4196 38.2563 55.5479 37.9144 55.788 37.657L55.813 37.63C55.9317 37.5027 56.0743 37.4001 56.2327 37.3281C56.3911 37.2561 56.5622 37.216 56.7361 37.2103C56.91 37.2045 57.0834 37.2332 57.2462 37.2945C57.4091 37.3559 57.5582 37.4489 57.685 37.568C58.219 38.069 58.246 38.91 57.747 39.445L57.721 39.473H57.722ZM67.089 75.453C67.336 75.207 67.677 75.065 68.025 75.065C68.374 75.065 68.715 75.207 68.962 75.454C69.208 75.701 69.35 76.044 69.35 76.394C69.35 76.743 69.208 77.085 68.962 77.332C68.715 77.579 68.374 77.722 68.025 77.722C67.677 77.722 67.335 77.579 67.089 77.332C66.8414 77.0821 66.7021 76.7448 66.701 76.393C66.701 76.043 66.843 75.701 67.089 75.453V75.453Z" fill="#222222"/>
</g>
<defs>
<clipPath id="clip0_1_16">
<rect width="68" height="68" fill="white" transform="translate(34 24)"/>
</clipPath>
</defs>
</svg>
