<svg width="136" height="102" viewBox="0 0 136 102" fill="none" xmlns="http://www.w3.org/2000/svg">
<path d="M135 68C135 30.9969 105.003 1 68 1C30.9969 1 1 30.9969 1 68" stroke="#ADADAD"/>
<g clip-path="url(#clip0_1_16)">
<path d="M70.48 45.208H78.866V50.001H70.48V45.208Z" fill="#EEEEEE"/>
<path fill-rule="evenodd" clip-rule="evenodd" d="M98.227 73.31C98.227 86.184 87.69 96.62 74.692 96.62C61.695 96.62 51.158 86.184 51.158 73.31C51.158 60.436 61.695 50 74.692 50C87.69 50 98.227 60.436 98.227 73.31ZM92.481 73.31C92.481 83.041 84.517 90.93 74.692 90.93C64.868 90.93 56.903 83.041 56.903 73.31C56.903 63.58 64.868 55.69 74.693 55.69C84.517 55.69 92.481 63.58 92.481 73.31V73.31Z" fill="#EEEEEE"/>
<path fill-rule="evenodd" clip-rule="evenodd" d="M79.086 45.208H70.26C68.635 45.208 67.318 43.903 67.318 42.294C67.318 40.684 68.635 39.38 70.26 39.38H79.086C80.71 39.38 82.027 40.685 82.027 42.294C82.027 43.904 80.71 45.208 79.086 45.208ZM77.275 73.31C77.275 74.723 76.118 75.868 74.692 75.868C73.265 75.868 72.108 74.723 72.108 73.31C72.108 71.897 73.265 70.751 74.692 70.751C76.118 70.751 77.275 71.897 77.275 73.31Z" fill="#1B75BC"/>
<path fill-rule="evenodd" clip-rule="evenodd" d="M96.575 70.852C96.001 65.1891 93.4841 59.8995 89.452 55.882C86.1322 52.5704 81.9356 50.2757 77.356 49.268V46.17C78.2556 45.9473 79.055 45.4303 79.6272 44.7012C80.1994 43.9722 80.5115 43.0728 80.514 42.146C80.514 39.86 78.647 38 76.351 38H67.534C65.238 38 63.371 39.86 63.371 42.146C63.3733 43.0728 63.6854 43.9723 64.2576 44.7014C64.8298 45.4305 65.6293 45.9474 66.529 46.17V49.277C61.9635 50.2889 57.7806 52.5803 54.47 55.883C53.7278 56.6216 53.033 57.4065 52.39 58.233C52.3594 58.2302 52.3287 58.2285 52.298 58.228H43.572C42.896 58.228 42.347 58.774 42.347 59.448C42.347 60.121 42.896 60.668 43.572 60.668H50.725C49.8368 62.149 49.1084 63.7202 48.552 65.355H35.225C34.548 65.355 34 65.9 34 66.575C34 67.248 34.548 67.794 35.225 67.794H47.86C47.508 69.3333 47.3044 70.9028 47.252 72.481H41.837C41.161 72.481 40.613 73.027 40.613 73.701C40.613 74.374 41.161 74.921 41.837 74.921H47.291C47.3947 76.5043 47.6509 78.0739 48.056 79.608H40.123C39.447 79.608 38.898 80.154 38.898 80.828C38.898 81.501 39.447 82.047 40.123 82.047H48.837C50.0755 85.3065 51.996 88.2638 54.47 90.721C58.5199 94.7464 63.8338 97.2526 69.516 97.817C70.325 97.896 71.134 97.935 71.943 97.935C76.721 97.935 81.439 96.558 85.442 93.962C85.5765 93.875 85.6925 93.7622 85.7834 93.6302C85.8742 93.4982 85.9381 93.3496 85.9714 93.1929C86.0046 93.0361 86.0066 92.8743 85.9772 92.7168C85.9478 92.5593 85.8876 92.4092 85.8 92.275C85.622 92.0036 85.3438 91.8136 85.0262 91.7467C84.7085 91.6798 84.3774 91.7414 84.105 91.918C75.343 97.601 63.608 96.372 56.202 88.997C47.512 80.343 47.512 66.262 56.202 57.607C64.892 48.954 79.03 48.954 87.72 57.607C95.116 64.974 96.357 76.651 90.67 85.373C90.5825 85.5073 90.5224 85.6576 90.4931 85.8151C90.4639 85.9727 90.466 86.1345 90.4995 86.2913C90.5329 86.4481 90.597 86.5966 90.6881 86.7286C90.7791 86.8605 90.8953 86.9731 91.03 87.06C91.3024 87.2358 91.6333 87.2967 91.9505 87.2294C92.2677 87.1622 92.5453 86.9722 92.723 86.701C95.7697 82.0084 97.1282 76.4185 96.575 70.851V70.852ZM65.82 42.146C65.82 41.205 66.589 40.439 67.534 40.439H76.351C77.296 40.439 78.065 41.205 78.065 42.146C78.065 43.088 77.296 43.854 76.351 43.854H67.534C67.0804 43.8543 66.6452 43.6746 66.3238 43.3544C66.0025 43.0342 65.8213 42.5996 65.82 42.146V42.146ZM68.978 46.293V48.858C70.9468 48.6217 72.9368 48.62 74.906 48.853V46.293H68.978V46.293ZM88.586 88.639C88.4254 88.6386 88.2664 88.6699 88.1179 88.731C87.9694 88.7921 87.8344 88.8818 87.7207 88.9951C87.6069 89.1084 87.5166 89.2431 87.4549 89.3913C87.3932 89.5395 87.3613 89.6984 87.361 89.859C87.3614 90.0196 87.3934 90.1785 87.4553 90.3266C87.5171 90.4748 87.6075 90.6094 87.7214 90.7226C87.8352 90.8358 87.9703 90.9254 88.1188 90.9864C88.2674 91.0474 88.4264 91.0785 88.587 91.078C88.9108 91.0775 89.2212 90.9489 89.4505 90.7203C89.6798 90.4918 89.8094 90.1818 89.811 89.858C89.8094 89.5342 89.6798 89.2242 89.4505 88.9957C89.2212 88.7671 88.9108 88.6385 88.587 88.638L88.586 88.639ZM71.962 54.384C61.488 54.384 52.966 62.87 52.966 73.302C52.966 83.733 61.487 92.22 71.962 92.22C82.436 92.22 90.958 83.734 90.958 73.302C90.958 62.87 82.436 54.384 71.962 54.384ZM71.962 89.781C62.838 89.781 55.415 82.389 55.415 73.302C55.415 64.215 62.838 56.822 71.962 56.822C81.086 56.822 88.509 64.215 88.509 73.302C88.509 82.389 81.086 89.782 71.962 89.782V89.781ZM73.642 69.903L79.708 63.863C79.9381 63.6341 80.2495 63.5056 80.574 63.5056C80.8985 63.5056 81.2099 63.6341 81.44 63.863C81.5537 63.976 81.644 64.1104 81.7055 64.2584C81.7671 64.4064 81.7988 64.5652 81.7988 64.7255C81.7988 64.8858 81.7671 65.0446 81.7055 65.1926C81.644 65.3406 81.5537 65.475 81.44 65.588L81.262 65.765L75.375 71.628C75.625 72.133 75.767 72.701 75.767 73.302C75.767 75.392 74.06 77.092 71.962 77.092C69.864 77.092 68.157 75.392 68.157 73.302C68.157 72.702 68.298 72.133 68.549 71.628L65.835 68.925C65.7213 68.812 65.631 68.6776 65.5695 68.5296C65.5079 68.3816 65.4762 68.2228 65.4762 68.0625C65.4762 67.9022 65.5079 67.7434 65.5695 67.5954C65.631 67.4474 65.7213 67.313 65.835 67.2C66.0651 66.9711 66.3765 66.8426 66.701 66.8426C67.0255 66.8426 67.3369 66.9711 67.567 67.2L70.281 69.903C70.8039 69.6456 71.3792 69.5122 71.962 69.513C72.565 69.513 73.136 69.653 73.642 69.903V69.903ZM70.606 73.302C70.606 74.047 71.214 74.652 71.962 74.652C72.71 74.652 73.318 74.047 73.318 73.302C73.318 72.557 72.71 71.952 71.962 71.952C71.214 71.952 70.606 72.557 70.606 73.302ZM83.92 72.097H85.055C85.731 72.097 86.279 72.643 86.279 73.317C86.279 73.99 85.731 74.537 85.055 74.537H83.92C83.7595 74.5373 83.6006 74.5059 83.4522 74.4447C83.3038 74.3836 83.169 74.2938 83.0553 74.1805C82.9417 74.0672 82.8514 73.9326 82.7898 73.7845C82.7281 73.6363 82.6963 73.4775 82.696 73.317C82.696 72.643 83.244 72.097 83.92 72.097ZM60.004 72.067H58.869C58.193 72.067 57.645 72.614 57.645 73.287C57.645 73.961 58.193 74.507 58.869 74.507H60.004C60.68 74.507 61.228 73.961 61.228 73.287C61.228 72.614 60.68 72.067 60.004 72.067ZM73.2 61.394C73.2 62.067 72.652 62.614 71.976 62.614C71.8154 62.6144 71.6564 62.5831 71.5079 62.522C71.3594 62.4609 71.2244 62.3712 71.1107 62.2579C70.9969 62.1446 70.9066 62.0099 70.8449 61.8617C70.7832 61.7135 70.7513 61.5546 70.751 61.394V60.264C70.751 59.59 71.3 59.044 71.976 59.044C72.652 59.044 73.2 59.591 73.2 60.264V61.394ZM71.946 83.993C71.27 83.993 70.722 84.539 70.722 85.213V86.342C70.722 87.015 71.27 87.562 71.946 87.562C72.622 87.562 73.171 87.015 73.171 86.342V85.212C73.171 84.539 72.622 83.992 71.946 83.992V83.993ZM34.359 79.964C34.587 79.738 34.902 79.607 35.225 79.607C35.5489 79.6073 35.8596 79.7357 36.0892 79.9643C36.3187 80.1929 36.4484 80.5031 36.45 80.827C36.4484 81.1509 36.3187 81.4611 36.0892 81.6897C35.8596 81.9183 35.5489 82.0467 35.225 82.047C34.9007 82.0473 34.5896 81.9188 34.3599 81.6899C34.1302 81.461 34.0008 81.1503 34 80.826C34 80.505 34.131 80.19 34.359 79.963V79.964Z" fill="#222222"/>
</g>
<defs>
<clipPath id="clip0_1_16">
<rect width="68" height="68" fill="white" transform="translate(34 34)"/>
</clipPath>
</defs>
</svg>
