<svg width="136" height="98" viewBox="0 0 136 98" fill="none" xmlns="http://www.w3.org/2000/svg">
<g clip-path="url(#clip0_1_16)">
<path fill-rule="evenodd" clip-rule="evenodd" d="M35.254 81.291H44.159C44.203 84.405 46.718 86.916 49.813 86.916C52.909 86.916 55.424 84.406 55.468 81.291H82.612C82.655 84.405 85.17 86.916 88.266 86.916C91.362 86.916 93.876 84.406 93.92 81.291H101.043V68.718L90.834 52.716H78.357V44.716H35.254V81.29V81.291Z" fill="#EEEEEE"/>
<path d="M93.651 57.5H82.783V67.645H100.227L93.65 57.5H93.651Z" fill="#27A763"/>
<path fill-rule="evenodd" clip-rule="evenodd" d="M38.435 39H54.4V41.387H38.435V39ZM91.619 52.286C91.5171 52.1257 91.3764 51.9936 91.2101 51.9019C91.0437 51.8101 90.857 51.7617 90.667 51.761H79.333V44.915C79.333 44.285 78.826 43.775 78.2 43.775H35.133C34.508 43.775 34 44.285 34 44.915V81.426C34 82.056 34.508 82.566 35.133 82.566H43.17C43.818 86.291 47.341 88.781 51.04 88.129C52.4212 87.8825 53.6928 87.2163 54.6817 86.221C55.6705 85.2257 56.3285 83.9498 56.566 82.567H81.703C82.351 86.291 85.875 88.781 89.574 88.129C90.955 87.8824 92.2264 87.216 93.2151 86.2207C94.2037 85.2255 94.8616 83.9496 95.099 82.567H100.868C101.493 82.567 102.001 82.056 102.001 81.426V68.876C102.001 68.656 101.937 68.443 101.82 68.259L91.62 52.286H91.619ZM92.933 58.606L98.067 66.593H83.867V58.607H92.933V58.606ZM45.333 81.426C45.333 83.946 47.363 85.99 49.867 85.99C52.37 85.99 54.4 83.946 54.4 81.426C54.4 78.906 52.37 76.862 49.867 76.862C47.363 76.862 45.333 78.906 45.333 81.426ZM49.867 74.58C46.55 74.584 43.722 76.993 43.169 80.285H36.267V78.003H41.933V75.721H36.267V46.056H77.067V48.338H38.533V50.62H77.067V75.72H57.8V78.002H77.067V80.284H56.565C56.012 76.994 53.183 74.583 49.867 74.579V74.58ZM95.098 80.285C94.45 76.561 90.926 74.071 87.228 74.723C85.8469 74.9696 84.5753 75.6359 83.5865 76.6312C82.5976 77.6264 81.9396 78.9023 81.702 80.285H79.333V54.043H90.043L91.505 56.325H82.733C82.108 56.325 81.6 56.835 81.6 57.465V67.735C81.6 68.365 82.108 68.875 82.733 68.875H99.518L99.733 69.206V75.701H96.383V75.721H96.333V78.003H96.383V78.088H99.733V80.285H95.098V80.285ZM51.148 80.177H48.783V82.563H51.148V80.176V80.177ZM34 39H36.365V41.387H34V39Z" fill="#222222"/>
</g>
<path d="M135 68C135 30.9969 105.003 1 68 1C30.9969 1 1 30.9969 1 68" stroke="#ADADAD"/>
<defs>
<clipPath id="clip0_1_16">
<rect width="68" height="68" fill="white" transform="translate(34 30)"/>
</clipPath>
</defs>
</svg>
